<svg width="450" height="80" viewBox="0 0 450 80" fill="none" xmlns="http://www.w3.org/2000/svg">
    <path d="M0 0H449.191L422.122 39.5054L449.191 79.0107H0L29.2632 39.5054L0 0Z" fill="url(#paint0_linear_597_1502)"/>
    <rect x="118.516" y="26.4102" width="26.3369" height="29.2632" fill="white"/>
    <path d="M82.6979 64.8288C78.0158 64.8288 73.8956 63.9392 70.3372 62.16C66.8256 60.334 64.0631 57.6417 62.0498 54.0833C60.0833 50.4781 59.1001 46.0067 59.1001 40.6691C59.1001 34.9101 60.2472 30.0172 62.5414 25.9906C64.8357 21.9172 68.0195 18.8036 72.093 16.6498C76.2132 14.496 80.9656 13.4191 86.35 13.4191C89.2529 13.4191 92.0388 13.7703 94.7076 14.4726C97.4232 15.1281 99.7174 16.0645 101.59 17.2819L95.6206 28.8701C94.1691 27.8401 92.6943 27.1611 91.196 26.8334C89.7445 26.4588 88.2463 26.2715 86.7012 26.2715C83.3769 26.2715 80.7081 27.2782 78.6947 29.2915C76.7282 31.258 75.745 34.1375 75.745 37.93C75.745 38.6323 75.745 39.3347 75.745 40.037C75.745 40.6925 75.745 41.3714 75.745 42.0737L71.9525 39.3347C72.8889 37.7427 73.9892 36.4083 75.2534 35.3314C76.5176 34.2077 78.0158 33.365 79.7482 32.8031C81.4806 32.1944 83.4939 31.8901 85.7881 31.8901C88.7847 31.8901 91.5472 32.5456 94.0755 33.8566C96.6507 35.1207 98.7108 36.9234 100.256 39.2644C101.848 41.6055 102.644 44.3913 102.644 47.622C102.644 51.1336 101.754 54.177 99.975 56.7521C98.1958 59.3273 95.7845 61.3172 92.7411 62.7218C89.7445 64.1265 86.3968 64.8288 82.6979 64.8288ZM81.5742 53.381C82.5575 53.381 83.4237 53.1937 84.1728 52.8192C84.9688 52.3978 85.5775 51.8125 85.9988 51.0634C86.4202 50.3142 86.6309 49.4246 86.6309 48.3946C86.6309 46.8495 86.1627 45.6321 85.2263 44.7425C84.2899 43.8061 83.0725 43.3379 81.5742 43.3379C80.591 43.3379 79.7248 43.5486 78.9757 43.97C78.2265 44.3913 77.6179 44.9766 77.1496 45.7257C76.7282 46.4749 76.5176 47.3645 76.5176 48.3946C76.5176 49.4246 76.7282 50.3142 77.1496 51.0634C77.6179 51.8125 78.2265 52.3978 78.9757 52.8192C79.7248 53.1937 80.591 53.381 81.5742 53.381ZM131.308 64.8288C126.953 64.8288 123.091 63.8221 119.719 61.8088C116.395 59.7955 113.773 56.8692 111.853 53.0298C109.981 49.1905 109.044 44.5552 109.044 39.124C109.044 33.6927 109.981 29.0574 111.853 25.2181C113.773 21.3787 116.395 18.4524 119.719 16.4391C123.091 14.4258 126.953 13.4191 131.308 13.4191C135.662 13.4191 139.501 14.4258 142.826 16.4391C146.197 18.4524 148.819 21.3787 150.692 25.2181C152.611 29.0574 153.571 33.6927 153.571 39.124C153.571 44.5552 152.611 49.1905 150.692 53.0298C148.819 56.8692 146.197 59.7955 142.826 61.8088C139.501 63.8221 135.662 64.8288 131.308 64.8288ZM131.308 51.555C132.385 51.555 133.344 51.1804 134.187 50.4313C135.03 49.6821 135.685 48.3946 136.154 46.5685C136.669 44.7425 136.926 42.261 136.926 39.124C136.926 35.9401 136.669 33.4586 136.154 31.6794C135.685 29.8534 135.03 28.5658 134.187 27.8166C133.344 27.0675 132.385 26.6929 131.308 26.6929C130.231 26.6929 129.271 27.0675 128.428 27.8166C127.585 28.5658 126.906 29.8534 126.391 31.6794C125.923 33.4586 125.689 35.9401 125.689 39.124C125.689 42.261 125.923 44.7425 126.391 46.5685C126.906 48.3946 127.585 49.6821 128.428 50.4313C129.271 51.1804 130.231 51.555 131.308 51.555ZM168.628 63.7051L202.198 14.5428H214.068L180.497 63.7051H168.628ZM173.333 41.2309C170.852 41.2309 168.628 40.7159 166.661 39.6858C164.695 38.6089 163.126 37.0404 161.956 34.9803C160.832 32.9202 160.27 30.4386 160.27 27.5357C160.27 24.6328 160.832 22.1747 161.956 20.1614C163.126 18.1012 164.695 16.5327 166.661 15.4559C168.628 14.379 170.852 13.8405 173.333 13.8405C175.815 13.8405 178.039 14.379 180.005 15.4559C181.972 16.5327 183.517 18.1012 184.64 20.1614C185.811 22.1747 186.396 24.6328 186.396 27.5357C186.396 30.4386 185.811 32.9202 184.64 34.9803C183.517 37.0404 181.972 38.6089 180.005 39.6858C178.039 40.7159 175.815 41.2309 173.333 41.2309ZM173.333 33.6459C174.129 33.6459 174.831 33.2245 175.44 32.3817C176.096 31.4921 176.423 29.8768 176.423 27.5357C176.423 25.1947 176.096 23.6027 175.44 22.76C174.831 21.8704 174.129 21.4256 173.333 21.4256C172.584 21.4256 171.882 21.8704 171.226 22.76C170.571 23.6027 170.243 25.1947 170.243 27.5357C170.243 29.8768 170.571 31.4921 171.226 32.3817C171.882 33.2245 172.584 33.6459 173.333 33.6459ZM209.362 64.4074C206.881 64.4074 204.657 63.8924 202.69 62.8623C200.724 61.7854 199.155 60.2169 197.984 58.1568C196.861 56.0966 196.299 53.6151 196.299 50.7122C196.299 47.8093 196.861 45.3512 197.984 43.3379C199.155 41.2777 200.724 39.7092 202.69 38.6323C204.657 37.5554 206.881 37.017 209.362 37.017C211.844 37.017 214.068 37.5554 216.034 38.6323C218.001 39.7092 219.546 41.2777 220.669 43.3379C221.84 45.3512 222.425 47.8093 222.425 50.7122C222.425 53.6151 221.84 56.0966 220.669 58.1568C219.546 60.2169 218.001 61.7854 216.034 62.8623C214.068 63.8924 211.844 64.4074 209.362 64.4074ZM209.362 56.8224C210.158 56.8224 210.86 56.401 211.469 55.5582C212.124 54.6686 212.452 53.0533 212.452 50.7122C212.452 48.3711 212.124 46.7792 211.469 45.9364C210.86 45.0468 210.158 44.602 209.362 44.602C208.613 44.602 207.911 45.0468 207.255 45.9364C206.6 46.7792 206.272 48.3711 206.272 50.7122C206.272 53.0533 206.6 54.6686 207.255 55.5582C207.911 56.401 208.613 56.8224 209.362 56.8224Z" fill="white"/>
    <path d="M133.148 24.9473L118.516 42.5052H131.685L130.221 54.2105L144.853 36.6526H131.685L133.148 24.9473Z" fill="#FF0303"/>
    <path d="M220.43 36.1726C219.528 36.1726 218.697 36.0277 217.935 35.738C217.173 35.4483 216.508 35.0406 215.939 34.5148C215.381 33.9783 214.947 33.356 214.636 32.6478C214.325 31.9397 214.169 31.1618 214.169 30.3141C214.169 29.4664 214.325 28.6885 214.636 27.9803C214.947 27.2722 215.381 26.6552 215.939 26.1294C216.508 25.593 217.173 25.1799 217.935 24.8902C218.697 24.6004 219.528 24.4556 220.43 24.4556C221.342 24.4556 222.173 24.6004 222.924 24.8902C223.686 25.1799 224.346 25.593 224.904 26.1294C225.462 26.6552 225.897 27.2722 226.208 27.9803C226.53 28.6885 226.691 29.4664 226.691 30.3141C226.691 31.1618 226.53 31.945 226.208 32.6639C225.897 33.3721 225.462 33.9891 224.904 34.5148C224.346 35.0406 223.686 35.4483 222.924 35.738C222.173 36.0277 221.342 36.1726 220.43 36.1726ZM220.43 33.533C220.859 33.533 221.256 33.4579 221.621 33.3077C221.996 33.1575 222.318 32.9429 222.586 32.6639C222.865 32.3742 223.08 32.0309 223.23 31.6339C223.391 31.2369 223.472 30.7969 223.472 30.3141C223.472 29.8205 223.391 29.3806 223.23 28.9943C223.08 28.5973 222.865 28.2593 222.586 27.9803C222.318 27.6906 221.996 27.4707 221.621 27.3205C221.256 27.1702 220.859 27.0951 220.43 27.0951C220.001 27.0951 219.598 27.1702 219.223 27.3205C218.858 27.4707 218.536 27.6906 218.257 27.9803C217.989 28.2593 217.774 28.5973 217.613 28.9943C217.463 29.3806 217.388 29.8205 217.388 30.3141C217.388 30.7969 217.463 31.2369 217.613 31.6339C217.774 32.0309 217.989 32.3742 218.257 32.6639C218.536 32.9429 218.858 33.1575 219.223 33.3077C219.598 33.4579 220.001 33.533 220.43 33.533ZM232.126 29.622H237.325V32.0845H232.126V29.622ZM232.351 35.9473H229.164V24.6809H238.001V27.1434H232.351V35.9473ZM243.257 29.622H248.456V32.0845H243.257V29.622ZM243.482 35.9473H240.296V24.6809L249.132 24.6809V27.1434L243.482 27.1434V35.9473Z" fill="white"/>
    <path d="M52.6365 56.239C52.6365 57.751 52.2219 58.9312 51.3928 59.7799C50.5637 60.6285 49.3883 61.0528 47.8666 61.0528L42.1895 61.0528L42.1895 58.1558L47.7788 58.1558C48.6567 58.1558 49.2858 57.9851 49.6663 57.6437C50.0467 57.2925 50.2369 56.8145 50.2369 56.2098C50.2369 55.605 50.0467 55.1319 49.6663 54.7905C49.2858 54.4491 48.6567 54.2784 47.7788 54.2784L42.1895 54.2784L42.1895 51.4252L47.8666 51.4252C49.3883 51.4252 50.5637 51.8495 51.3928 52.6982C52.2219 53.5468 52.6365 54.7271 52.6365 56.239ZM52.4316 48.7311L42.1895 48.7311L42.1895 44.049C42.1895 43.1125 42.3407 42.3078 42.6431 41.6347C42.9455 40.9519 43.3844 40.4252 43.9599 40.0545C44.5257 39.6839 45.1987 39.4985 45.9791 39.4985C46.7497 39.4985 47.4179 39.6839 47.9836 40.0545C48.5494 40.4252 48.9883 40.9519 49.3005 41.6347C49.6029 42.3078 49.7541 43.1125 49.7541 44.049L49.7541 47.1216L48.4957 45.834L52.4316 45.834L52.4316 48.7311ZM48.803 45.834L47.4715 47.1216L47.4715 44.2245C47.4715 43.6198 47.3398 43.1711 47.0765 42.8784C46.8131 42.576 46.4473 42.4248 45.9791 42.4248C45.5011 42.4248 45.1305 42.576 44.8671 42.8784C44.6037 43.1711 44.472 43.6198 44.472 44.2245L44.472 47.1216L43.1406 45.834L48.803 45.834ZM52.4316 35.4315L44.4867 35.4315L44.4867 38.5773L42.1895 38.5773L42.1895 29.4033L44.4867 29.4033L44.4867 32.5344L52.4316 32.5344L52.4316 35.4315ZM52.6365 22.5703C52.6365 23.3897 52.5048 24.1456 52.2414 24.8382C51.9781 25.5308 51.6074 26.1355 51.1294 26.6525C50.6417 27.1598 50.076 27.5548 49.4322 27.8377C48.7884 28.1206 48.0812 28.262 47.3106 28.262C46.54 28.262 45.8328 28.1206 45.189 27.8377C44.5452 27.5548 43.9843 27.1598 43.5064 26.6525C43.0186 26.1355 42.6431 25.5308 42.3797 24.8382C42.1163 24.1456 41.9847 23.3897 41.9847 22.5703C41.9847 21.7412 42.1163 20.9852 42.3797 20.3024C42.6431 19.6098 43.0186 19.0099 43.5064 18.5027C43.9843 17.9955 44.5452 17.6004 45.189 17.3176C45.8328 17.0249 46.54 16.8786 47.3106 16.8786C48.0812 16.8786 48.7932 17.0249 49.4468 17.3176C50.0906 17.6004 50.6515 17.9955 51.1294 18.5027C51.6074 19.0099 51.9781 19.6098 52.2414 20.3024C52.5048 20.9852 52.6365 21.7412 52.6365 22.5703ZM50.2369 22.5703C50.2369 22.1801 50.1686 21.8192 50.0321 21.4876C49.8955 21.1462 49.7004 20.8535 49.4468 20.6097C49.1834 20.3561 48.8713 20.161 48.5104 20.0244C48.1495 19.8781 47.7495 19.8049 47.3106 19.8049C46.8619 19.8049 46.4619 19.8781 46.1108 20.0244C45.7499 20.161 45.4426 20.3561 45.189 20.6097C44.9256 20.8535 44.7257 21.1462 44.5891 21.4876C44.4525 21.8192 44.3843 22.1801 44.3843 22.5703C44.3843 22.9605 44.4525 23.3263 44.5891 23.6677C44.7257 23.9993 44.9256 24.292 45.189 24.5456C45.4426 24.7894 45.7499 24.9845 46.1108 25.1308C46.4619 25.2674 46.8619 25.3357 47.3106 25.3357C47.7495 25.3357 48.1495 25.2674 48.5104 25.1308C48.8713 24.9845 49.1834 24.7894 49.4468 24.5456C49.7004 24.292 49.8955 23.9993 50.0321 23.6677C50.1686 23.3263 50.2369 22.9605 50.2369 22.5703Z" fill="white"/>
    <path d="M283.358 42.9473L283.358 21.8843H294.131C296.899 21.8843 298.965 22.3958 300.329 23.4189C301.693 24.4219 302.375 25.7458 302.375 27.3907C302.375 28.474 302.085 29.4268 301.503 30.2493C300.941 31.0517 300.139 31.6936 299.096 32.175C298.073 32.6364 296.849 32.8671 295.425 32.8671L296.026 31.4228C297.511 31.4228 298.805 31.6535 299.908 32.1149C301.011 32.5562 301.864 33.2081 302.466 34.0707C303.088 34.9132 303.398 35.9463 303.398 37.17C303.398 38.9954 302.656 40.4197 301.172 41.4428C299.707 42.4458 297.561 42.9473 294.733 42.9473H283.358ZM289.256 38.6444H294.251C295.274 38.6444 296.046 38.4739 296.568 38.1329C297.11 37.7718 297.38 37.2302 297.38 36.508C297.38 35.7858 297.11 35.2543 296.568 34.9132C296.046 34.5522 295.274 34.3716 294.251 34.3716H288.835V30.2493H293.348C294.351 30.2493 295.104 30.0788 295.605 29.7378C296.107 29.3967 296.357 28.8852 296.357 28.2032C296.357 27.5211 296.107 27.0196 295.605 26.6987C295.104 26.3576 294.351 26.1871 293.348 26.1871H289.256V38.6444ZM307.989 42.9473V21.8843L313.947 21.8843V38.2231H323.997V42.9473H307.989ZM325.537 42.9473L334.835 21.8843H340.702L350.03 42.9473H343.832L336.55 24.803H338.897L331.615 42.9473H325.537ZM330.622 38.855L332.157 34.4619H342.448L343.982 38.855H330.622ZM363.431 43.3685C361.766 43.3685 360.222 43.1077 358.797 42.5862C357.393 42.0446 356.17 41.2823 355.126 40.2993C354.103 39.3164 353.301 38.163 352.719 36.839C352.138 35.495 351.847 34.0206 351.847 32.4158C351.847 30.811 352.138 29.3466 352.719 28.0226C353.301 26.6786 354.103 25.5151 355.126 24.5322C356.17 23.5492 357.393 22.797 358.797 22.2754C360.222 21.7338 361.766 21.463 363.431 21.463C365.377 21.463 367.112 21.804 368.637 22.4861C370.181 23.1681 371.465 24.151 372.488 25.4349L368.697 28.8651C368.015 28.0627 367.263 27.4509 366.44 27.0297C365.638 26.6084 364.735 26.3978 363.732 26.3978C362.87 26.3978 362.077 26.5382 361.355 26.819C360.633 27.0999 360.011 27.5111 359.489 28.0527C358.988 28.5743 358.587 29.2062 358.286 29.9484C358.005 30.6906 357.865 31.5131 357.865 32.4158C357.865 33.3185 358.005 34.1409 358.286 34.8831C358.587 35.6254 358.988 36.2673 359.489 36.8089C360.011 37.3305 360.633 37.7317 361.355 38.0125C362.077 38.2933 362.87 38.4338 363.732 38.4338C364.735 38.4338 365.638 38.2231 366.44 37.8019C367.263 37.3806 368.015 36.7688 368.697 35.9664L372.488 39.3966C371.465 40.6604 370.181 41.6434 368.637 42.3455C367.112 43.0275 365.377 43.3685 363.431 43.3685ZM381.975 38.2833L381.644 31.6033L390.701 21.8843H397.261L388.234 31.6635L384.924 35.1239L381.975 38.2833ZM376.649 42.9473V21.8843H382.547V42.9473H376.649ZM390.792 42.9473L383.931 34.2513L387.813 30.0988L397.712 42.9473H390.792Z" fill="black"/>
    <path d="M285.34 57.622H290.539V60.0845H285.34V57.622ZM285.566 63.9473H282.379V52.6809H291.215V55.1434H285.566V63.9473ZM293.51 63.9473V52.6809H298.66C299.69 52.6809 300.576 52.8472 301.316 53.1799C302.067 53.5125 302.646 53.9953 303.054 54.6284C303.462 55.2507 303.666 55.9911 303.666 56.8495C303.666 57.6971 303.462 58.4321 303.054 59.0545C302.646 59.6661 302.067 60.1382 301.316 60.4708C300.576 60.7927 299.69 60.9536 298.66 60.9536H295.28L296.697 59.6178V63.9473H293.51ZM300.479 63.9473L297.679 59.8431H301.075L303.891 63.9473H300.479ZM296.697 59.9558L295.28 58.4911H298.467C299.132 58.4911 299.626 58.3463 299.948 58.0566C300.281 57.7669 300.447 57.3645 300.447 56.8495C300.447 56.3237 300.281 55.916 299.948 55.6263C299.626 55.3366 299.132 55.1917 298.467 55.1917H295.28L296.697 53.7271V59.9558ZM306.229 63.9473V52.6809H309.415V63.9473H306.229ZM312.487 63.9473V52.6809H317.815C319.059 52.6809 320.154 52.9116 321.098 53.373C322.042 53.8344 322.777 54.4835 323.303 55.3205C323.84 56.1574 324.108 57.1553 324.108 58.3141C324.108 59.4622 323.84 60.4601 323.303 61.3077C322.777 62.1447 322.042 62.7938 321.098 63.2552C320.154 63.7166 319.059 63.9473 317.815 63.9473H312.487ZM315.674 61.4043H317.686C318.33 61.4043 318.888 61.2863 319.36 61.0502C319.843 60.8034 320.218 60.4493 320.486 59.9879C320.755 59.5158 320.889 58.9579 320.889 58.3141C320.889 57.6596 320.755 57.1016 320.486 56.6402C320.218 56.1789 319.843 55.8301 319.36 55.5941C318.888 55.3473 318.33 55.2239 317.686 55.2239H315.674V61.4043ZM325.08 63.9473L330.053 52.6809H333.192L338.181 63.9473H334.866L330.971 54.2421H332.226L328.331 63.9473H325.08ZM327.8 61.7584L328.621 59.4085H334.125L334.946 61.7584H327.8ZM342.031 63.9473V59.1832L342.771 61.0985L337.734 52.6809H341.097L344.735 58.7808H342.787L346.441 52.6809H349.531L344.509 61.0985L345.218 59.1832V63.9473H342.031ZM356.635 63.9473V52.6809H361.962C363.207 52.6809 364.301 52.9116 365.246 53.373C366.19 53.8344 366.925 54.4835 367.451 55.3205C367.987 56.1574 368.255 57.1553 368.255 58.3141C368.255 59.4622 367.987 60.4601 367.451 61.3077C366.925 62.1447 366.19 62.7938 365.246 63.2552C364.301 63.7166 363.207 63.9473 361.962 63.9473H356.635ZM359.822 61.4043H361.833C362.477 61.4043 363.035 61.2863 363.507 61.0502C363.99 60.8034 364.366 60.4493 364.634 59.9879C364.902 59.5158 365.036 58.9579 365.036 58.3141C365.036 57.6596 364.902 57.1016 364.634 56.6402C364.366 56.1789 363.99 55.8301 363.507 55.5941C363.035 55.3473 362.477 55.2239 361.833 55.2239H359.822V61.4043ZM373.666 57.0426H378.897V59.4246H373.666V57.0426ZM373.891 61.4848H379.782V63.9473H370.737V52.6809H379.573V55.1434H373.891V61.4848ZM381.003 63.9473L385.976 52.6809H389.115L394.104 63.9473H390.789L386.894 54.2421H388.149L384.254 63.9473H381.003ZM383.723 61.7584L384.544 59.4085H390.048L390.869 61.7584H383.723ZM395.812 63.9473V52.6809H398.999V61.4204H404.375V63.9473H395.812Z" fill="white"/>
    <defs>
        <linearGradient id="paint0_linear_597_1502" x1="161.379" y1="157.523" x2="302.363" y2="20.7196" gradientUnits="userSpaceOnUse">
            <stop stop-color="#FF0202"/>
            <stop offset="1" stop-color="#FF9A02"/>
        </linearGradient>
    </defs>
</svg>
